<svg xmlns="http://www.w3.org/2000/svg" width="64" height="64"><g transform="translate(0 -1007.362)"><g transform="translate(151 -128)"><path d="M 24 0 C 10.75146 0 -4e-005 10.748847 0 23.998047 C 2e-005 37.247147 10.7515 48 24 48 C 37.24849 48 47.99998 37.247147 48 23.998047 C 48.00004 10.748847 37.24854 0 24 0 z M 24 1.0078125 C 36.70433 1.0078125 46.992227 11.293247 46.992188 23.998047 C 46.992167 36.702847 36.70429 46.992188 24 46.992188 C 11.29571 46.992188 1.0078225 36.702847 1.0078125 23.998047 C 1.0077725 11.293247 11.29567 1.0078125 24 1.0078125 z M 24 9.0195312 C 17.38372 9.0195312 12 14.265531 12 20.769531 C 12 24.191531 14.94739 28.621681 17.84375 32.300781 C 20.74011 35.979981 23.65625 38.863281 23.65625 38.863281 A 0.50005 0.50005 0 0 0 24.34375 38.863281 C 24.34375 38.863281 27.25989 35.979981 30.15625 32.300781 C 33.05261 28.621681 36 24.191531 36 20.769531 C 36 14.265531 30.61628 9.0195312 24 9.0195312 z M 24 10.019531 C 30.08628 10.019531 35 14.816531 35 20.769531 C 35 23.576131 32.19739 28.050981 29.34375 31.675781 C 26.66639 35.076781 24.32092 37.414681 24 37.738281 C 23.67908 37.414681 21.33361 35.076781 18.65625 31.675781 C 15.80261 28.050981 13 23.576131 13 20.769531 C 13 14.816531 17.91372 10.019531 24 10.019531 z M 24 14.019531 C 20.13993 14.019531 17 17.159431 17 21.019531 C 17 24.879531 20.13993 28.019531 24 28.019531 C 27.86007 28.019531 31 24.879531 31 21.019531 C 31 17.159431 27.86007 14.019531 24 14.019531 z M 24 15.019531 C 27.31963 15.019531 30 17.699831 30 21.019531 C 30 24.339131 27.31963 27.019531 24 27.019531 C 20.68037 27.019531 18 24.339131 18 21.019531 C 18 17.699831 20.68037 15.019531 24 15.019531 z M 26.3125 18.675781 L 23.09375 21.894531 L 21.6875 20.488281 L 21 21.175781 L 22.75 22.988281 L 23.125 23.332031 L 23.46875 22.988281 L 27 19.394531 L 26.3125 18.675781 z " color="#000" font-family="Sans" font-weight="400" overflow="visible" transform="translate(-151 1135.362)" style="line-height:normal;-inkscape-font-specification:Sans;text-indent:0;text-align:start;text-decoration-line:none;text-transform:none;block-progression:tb;marker:none"/><path fill="none" d="m -129.99999,1164.3622 c 0,2.7614 -2.23858,5 -5.00001,5 -2.76143,0 -5.00001,-2.2386 -5.00001,-5 0,-2.7614 2.23858,-5 5.00001,-5 2.76143,0 5.00001,2.2386 5.00001,5 z" color="#000" overflow="visible"/></g></g></svg>