<?xml version="1.0" encoding="iso-8859-1"?>
<!-- Generator: Adobe Illustrator 16.0.0, SVG Export Plug-In . SVG Version: 6.00 Build 0)  -->
<!DOCTYPE svg PUBLIC "-//W3C//DTD SVG 1.1//EN" "http://www.w3.org/Graphics/SVG/1.1/DTD/svg11.dtd">
<svg version="1.1" id="Capa_1" xmlns="http://www.w3.org/2000/svg" xmlns:xlink="http://www.w3.org/1999/xlink" x="0px" y="0px"
	 width="493.275px" height="493.275px" viewBox="0 0 493.275 493.275" style="enable-background:new 0 0 493.275 493.275;"
	 xml:space="preserve">
<g>
	<path d="M482.641,390.538l-204.6-332.7c-17.199-26.801-44-26.801-61.2,0l-206.6,332.7c-23,36.3-5.7,65,36.3,65h399.8
		C490.342,455.638,505.641,426.938,482.641,390.538z M247.441,398.237c-11.5,0-19.1-7.6-19.1-19.1s7.7-19.1,19.1-19.1
		c11.5,0,19.1,7.699,19.1,19.1S256.941,398.237,247.441,398.237z M266.541,302.638c0,9.6-7.6,19.1-19.1,19.1s-19.1-7.6-19.1-19.1
		v-114.8c0-9.601,7.7-19.101,19.1-19.101c11.5,0,19.1,7.7,19.1,19.101V302.638z"/>
</g>
<g>
</g>
<g>
</g>
<g>
</g>
<g>
</g>
<g>
</g>
<g>
</g>
<g>
</g>
<g>
</g>
<g>
</g>
<g>
</g>
<g>
</g>
<g>
</g>
<g>
</g>
<g>
</g>
<g>
</g>
</svg>
