<?xml version="1.0" encoding="utf-8"?>
<!-- Svg Vector Icons : http://www.onlinewebfonts.com/icon -->
<!DOCTYPE svg PUBLIC "-//W3C//DTD SVG 1.1//EN" "http://www.w3.org/Graphics/SVG/1.1/DTD/svg11.dtd">
<svg version="1.1" xmlns="http://www.w3.org/2000/svg" xmlns:xlink="http://www.w3.org/1999/xlink" x="0px" y="0px" viewBox="0 0 1000 1000" enable-background="new 0 0 1000 1000" xml:space="preserve">
<metadata> Svg Vector Icons : http://www.onlinewebfonts.com/icon </metadata>
<g><g><path d="M237.4,969.2c-13.8,0-27.1-4.3-38.3-12.5c-22.9-16.6-32.4-45.9-23.6-72.7l85.7-263.8l-224.4-163C14,440.6,4.5,411.3,13.2,384.5c8.7-26.9,33.6-45,61.9-45h277.3l85.7-263.7c8.8-26.9,33.6-45,61.9-45c28.3,0,53.2,18.1,61.9,45l85.7,263.7h277.3c28.3,0,53.1,18.1,61.9,45c8.7,26.9-0.8,56.1-23.6,72.8l-224.4,163L824.5,884c8.7,26.9-0.8,56.1-23.6,72.8c-22.4,16.3-54.2,16.3-76.5,0L500,793.8l-224.4,163C264.5,964.9,251.2,969.2,237.4,969.2z M75.1,395.3c-4,0-7.6,2.6-8.8,6.4c-1.3,3.8,0.1,8,3.4,10.4l257.2,186.8l-98.2,302.3c-1.2,3.8,0.1,8,3.4,10.4c4,2.9,6.9,2.9,10.9,0L500,724.8l257.1,186.8c4,2.9,6.9,2.9,10.9,0c3.3-2.4,4.6-6.6,3.4-10.4l-98.2-302.3l257.2-186.8c3.3-2.4,4.6-6.6,3.4-10.4c-1.3-3.8-4.8-6.4-8.8-6.4H607.1L508.9,93c-2.5-7.7-15.2-7.7-17.7,0l-98.2,302.3H75.1z"/></g><g></g><g></g><g></g><g></g><g></g><g></g><g></g><g></g><g></g><g></g><g></g><g></g><g></g><g></g><g></g></g>
</svg>