<?xml version="1.0" encoding="UTF-8" standalone="no"?>
<svg xmlns="http://www.w3.org/2000/svg" id="Hamburger" viewBox="0 0 24 24"><title>Hamburger</title><path d="M22.5,9.5H1.5a1,1,0,0,1-1-1v-1c0-2.21,4.5-4,11.5-4h0c7,0,11.5,1.79,11.5,4v1A1,1,0,0,1,22.5,9.5Z" style="fill:none;stroke:#303c42;stroke-linecap:round;stroke-linejoin:round"/><path d="M1.5,16.5h21a1,1,0,0,1,1,1v0a3,3,0,0,1-3,3H3.5a3,3,0,0,1-3-3v0a1,1,0,0,1,1-1Z" style="fill:none;stroke:#303c42;stroke-linecap:round;stroke-linejoin:round"/><rect x="1.5" y="14.5" width="21" height="2" rx="1" ry="1" style="fill:none;stroke:#303c42;stroke-linecap:round;stroke-linejoin:round"/><path d="M2.41,11.5a1,1,0,0,1-.91-1h0a1,1,0,0,1,.91-1H21.59a1,1,0,0,1,.91,1h0a1,1,0,0,1-.91,1" style="fill:none;stroke:#303c42;stroke-linecap:round;stroke-linejoin:round"/><path d="M4.5,11.5H2a1.5,1.5,0,1,0,0,3h9.5A9.56,9.56,0,0,0,4.5,11.5Z" style="fill:none;stroke:#303c42;stroke-linecap:round;stroke-linejoin:round"/><path d="M22,11.5H14.5c-1.5,0-3,3-3,3H22a1.5,1.5,0,0,0,0-3Z" style="fill:none;stroke:#303c42;stroke-linecap:round;stroke-linejoin:round"/><path d="M4.5,11.5a9.56,9.56,0,0,1,7,3s1.5-3,3-3" style="fill:none;stroke:#303c42;stroke-linecap:round;stroke-linejoin:round"/><line x1="11.5" y1="5.5" x2="11" y2="6.5" style="fill:none;stroke:#303c42;stroke-linecap:round;stroke-linejoin:round"/><line x1="8" y1="5.5" x2="7" y2="6" style="fill:none;stroke:#303c42;stroke-linecap:round;stroke-linejoin:round"/><line x1="4.5" y1="6.5" x2="4" y2="7.5" style="fill:none;stroke:#303c42;stroke-linecap:round;stroke-linejoin:round"/><line x1="20" y1="7.5" x2="19.5" y2="6.5" style="fill:none;stroke:#303c42;stroke-linecap:round;stroke-linejoin:round"/><line x1="15.5" y1="6" x2="16.5" y2="6.5" style="fill:none;stroke:#303c42;stroke-linecap:round;stroke-linejoin:round"/>
	<metadata>
		<rdf:RDF xmlns:rdf="http://www.w3.org/1999/02/22-rdf-syntax-ns#" xmlns:rdfs="http://www.w3.org/2000/01/rdf-schema#" xmlns:dc="http://purl.org/dc/elements/1.1/">
			<rdf:Description about="https://iconscout.com/legal#licenses" dc:title="food; eat; hamburger; fast" dc:description="food; eat; hamburger; fast" dc:publisher="Iconscout" dc:date="2017-02-16" dc:format="image/svg+xml" dc:language="en">
				<dc:creator>
					<rdf:Bag>
						<rdf:li>Alpár - Etele Méder</rdf:li>
					</rdf:Bag>
				</dc:creator>
			</rdf:Description>
		</rdf:RDF>
    </metadata></svg>
