<?xml version="1.0" encoding="UTF-8" standalone="no"?>
<svg xmlns="http://www.w3.org/2000/svg" viewBox="0 0 24 24"><title>Pizza Slice</title><g id="Pizza_Slice" data-name="Pizza Slice"><path d="M16.5,13c0-1.38-.78-2.5-1.74-2.5-.33,0-1.09,0-1.09.76,0,.32.22.22.22.54s-1-.11-1.3-.11-1.09.2-1.09,1.3h0c0,1.11.74,1.3,1.09,1.3s1.3-.49,1.3-.11-.22.22-.22.54c0,.76.76.76,1.09.76C15.72,15.5,16.5,14.38,16.5,13Z" style="fill:none;stroke:#303c42;stroke-linecap:round;stroke-linejoin:round"/><path d="M10.46,19.6a2.5,2.5,0,1,0-4.54,1.78" style="fill:none;stroke:#303c42;stroke-linecap:round;stroke-linejoin:round"/><path d="M6,9.47A2.5,2.5,0,1,0,7.52,5.55" style="fill:none;stroke:#303c42;stroke-linecap:round;stroke-linejoin:round"/><circle cx="7" cy="14" r="0.5" style="fill:none;stroke:#303c42;stroke-linecap:round;stroke-linejoin:round"/><circle cx="13" cy="8" r="0.5" style="fill:none;stroke:#303c42;stroke-linecap:round;stroke-linejoin:round"/><path d="M23.5,14.5A24.77,24.77,0,0,0,9.5.5l-9,23Z" style="fill:none;stroke:#303c42;stroke-linecap:round;stroke-linejoin:round"/><path d="M20.56,15.65a4.19,4.19,0,0,1-.19-.38c-.56-1.34-.36-3.08-1.16-4.27S16.72,9.31,15.7,8.3,14.2,5.59,13,4.79s-2.93-.6-4.27-1.16a4.18,4.18,0,0,1-.38-.19" style="fill:none;stroke:#303c42;stroke-linecap:round;stroke-linejoin:round"/></g>
	<metadata>
		<rdf:RDF xmlns:rdf="http://www.w3.org/1999/02/22-rdf-syntax-ns#" xmlns:rdfs="http://www.w3.org/2000/01/rdf-schema#" xmlns:dc="http://purl.org/dc/elements/1.1/">
			<rdf:Description about="https://iconscout.com/legal#licenses" dc:title="food; eat; pizza; italian; fast" dc:description="food; eat; pizza; italian; fast" dc:publisher="Iconscout" dc:date="2017-02-16" dc:format="image/svg+xml" dc:language="en">
				<dc:creator>
					<rdf:Bag>
						<rdf:li>Alpár - Etele Méder</rdf:li>
					</rdf:Bag>
				</dc:creator>
			</rdf:Description>
		</rdf:RDF>
    </metadata></svg>
