<svg xmlns="http://www.w3.org/2000/svg" width="32" height="32" viewBox="0 0 8.467 8.467"><g transform="translate(293.777 -178.02)"><path style="line-height:normal;font-variant-ligatures:normal;font-variant-position:normal;font-variant-caps:normal;font-variant-numeric:normal;font-variant-alternates:normal;font-feature-settings:normal;text-indent:0;text-align:start;text-decoration-line:none;text-decoration-style:solid;text-decoration-color:#000;text-transform:none;text-orientation:mixed;shape-padding:0;isolation:auto;mix-blend-mode:normal" d="m -292.51952,182.25428 c -0.0735,-2.8e-4 -0.13311,0.0593 -0.13283,0.13279 0,1.62195 1.00457,2.64425 2.24837,2.64425 h 1.05876 c 1.24379,0 2.25033,-1.0223 2.25033,-2.64425 2.8e-4,-0.0735 -0.0593,-0.13308 -0.13284,-0.13279 z m 0.13251,0.26559 5.02482,-0.003 c -0.058,1.44209 -0.92279,2.25091 -1.98303,2.25091 h -1.05876 c -1.06028,0 -1.91988,-0.83669 -1.98303,-2.24781 z" color="#000" font-family="sans-serif" font-weight="400" overflow="visible" white-space="normal"/><path style="line-height:normal;font-variant-ligatures:normal;font-variant-position:normal;font-variant-caps:normal;font-variant-numeric:normal;font-variant-alternates:normal;font-feature-settings:normal;text-indent:0;text-align:start;text-decoration-line:none;text-decoration-style:solid;text-decoration-color:#000;text-transform:none;text-orientation:mixed;shape-padding:0;isolation:auto;mix-blend-mode:normal" d="M-291.06423 184.90047v.66009a.13232442.1322908 0 0 0 .13283.1328h2.11555a.13232442.1322908 0 0 0 .13284-.1328v-.66009h-.26372v.52729h-1.85379v-.52729zM-288.74943 181.79144c-.25417 0-.46296.20873-.46296.46284h.26566c0-.11109.0861-.19725.1973-.19725.1112 0 .19924.0862.19924.19725v.13279h.26371v-.13279c.00001-.25412-.20879-.46284-.46295-.46284z" color="#000" font-family="sans-serif" font-weight="400" overflow="visible" white-space="normal"/><path style="line-height:normal;font-variant-ligatures:normal;font-variant-position:normal;font-variant-caps:normal;font-variant-numeric:normal;font-variant-alternates:normal;font-feature-settings:normal;text-indent:0;text-align:start;text-decoration-line:none;text-decoration-style:solid;text-decoration-color:#000;text-transform:none;text-orientation:mixed;shape-padding:0;isolation:auto;mix-blend-mode:normal" d="m -288.74943,181.32859 c -0.12748,0 -0.24849,0.0273 -0.35944,0.0742 -0.0555,0.0235 -0.10904,0.0508 -0.15822,0.084 -0.0244,0.0165 -0.0492,0.0357 -0.0723,0.0547 l 0.16994,0.2031 c 0.0162,-0.0134 0.0329,-0.027 0.0508,-0.0391 v 0.002 c 0.0352,-0.0238 0.0718,-0.0458 0.11135,-0.0625 0.0791,-0.0335 0.16609,-0.0508 0.25785,-0.0508 0.36695,0 0.66221,0.29337 0.6622,0.66009 v 0.13279 h 0.26371 v -0.13279 c 10e-6,-0.50974 -0.41598,-0.92568 -0.92591,-0.92569 z" color="#000" font-family="sans-serif" font-weight="400" overflow="visible" white-space="normal"/><path style="line-height:normal;font-variant-ligatures:normal;font-variant-position:normal;font-variant-caps:normal;font-variant-numeric:normal;font-variant-alternates:normal;font-feature-settings:normal;text-indent:0;text-align:start;text-decoration-line:none;text-decoration-style:solid;text-decoration-color:#000;text-transform:none;text-orientation:mixed;shape-padding:0;isolation:auto;mix-blend-mode:normal" d="m -288.74943,180.86574 c -0.19145,0 -0.3748,0.0391 -0.5411,0.10937 -0.0832,0.0351 -0.16245,0.079 -0.23636,0.1289 -0.0371,0.025 -0.0713,0.0518 -0.10548,0.0801 l 0.16799,0.20311 c 0.0278,-0.0229 0.056,-0.0443 0.0859,-0.0644 0.0599,-0.0405 0.12427,-0.0752 0.19144,-0.10351 0.13447,-0.0569 0.2819,-0.0879 0.43757,-0.0879 0.62273,0 1.12518,0.50056 1.12516,1.12293 v 0.13279 h 0.26371 v -0.13279 c 2e-5,-0.76538 -0.62318,-1.38854 -1.38887,-1.38854 z" color="#000" font-family="sans-serif" font-weight="400" overflow="visible" white-space="normal"/><path style="line-height:normal;font-variant-ligatures:normal;font-variant-position:normal;font-variant-caps:normal;font-variant-numeric:normal;font-variant-alternates:normal;font-feature-settings:normal;text-indent:0;text-align:start;text-decoration-line:none;text-decoration-style:solid;text-decoration-color:#000;text-transform:none;text-orientation:mixed;shape-padding:0;isolation:auto;mix-blend-mode:normal" d="m -290.33756,180.86574 c -0.38285,0 -0.73131,0.15703 -0.98256,0.40817 -0.0314,0.0314 -0.0596,0.0634 -0.0879,0.0977 l 0.20315,0.16795 c 0.0229,-0.0277 0.0468,-0.0546 0.0723,-0.0801 0.20366,-0.20357 0.48369,-0.32808 0.79504,-0.32808 0.62272,0 1.12519,0.50056 1.12517,1.12293 h 0.26371 c 2e-5,-0.76538 -0.62319,-1.38854 -1.38888,-1.38854 z" color="#000" font-family="sans-serif" font-weight="400" overflow="visible" white-space="normal"/><path style="line-height:normal;font-variant-ligatures:normal;font-variant-position:normal;font-variant-caps:normal;font-variant-numeric:normal;font-variant-alternates:normal;font-feature-settings:normal;text-indent:0;text-align:start;text-decoration-line:none;text-decoration-style:solid;text-decoration-color:#000;text-transform:none;text-orientation:mixed;shape-padding:0;isolation:auto;mix-blend-mode:normal" d="M-290.33756 181.32859c-.25496 0-.48693.10407-.6544.27146l.18753.18748c.11987-.11981.28338-.19334.46687-.19334.36697 0 .66222.29337.66221.66009v.13279h.26371v-.13279c.00001-.50974-.41598-.92569-.92592-.92569zM-291.46077 181.79144c-.25417 0-.46297.20873-.46296.46284v.13279h.26371v-.13279c0-.11109.088-.19725.19925-.19725.1112 0 .19729.0862.19729.19725v.13279h.26566v-.13279c.00002-.25412-.20879-.46284-.46295-.46284z" color="#000" font-family="sans-serif" font-weight="400" overflow="visible" white-space="normal"/><path style="line-height:normal;font-variant-ligatures:normal;font-variant-position:normal;font-variant-caps:normal;font-variant-numeric:normal;font-variant-alternates:normal;font-feature-settings:normal;text-indent:0;text-align:start;text-decoration-line:none;text-decoration-style:solid;text-decoration-color:#000;text-transform:none;text-orientation:mixed;shape-padding:0;isolation:auto;mix-blend-mode:normal" d="m -291.46077,181.32859 c -0.50993,0 -0.92788,0.41595 -0.92787,0.92569 v 0.13279 h 0.26566 v -0.13279 c -1e-5,-0.36672 0.29525,-0.66009 0.66221,-0.66009 0.36697,0 0.66027,0.29337 0.66025,0.66009 v 0.13279 h 0.26566 v -0.13279 c 3e-5,-0.50974 -0.41597,-0.92569 -0.92591,-0.92569 z" color="#000" font-family="sans-serif" font-weight="400" overflow="visible" white-space="normal"/><path style="line-height:normal;font-variant-ligatures:normal;font-variant-position:normal;font-variant-caps:normal;font-variant-numeric:normal;font-variant-alternates:normal;font-feature-settings:normal;text-indent:0;text-align:start;text-decoration-line:none;text-decoration-style:solid;text-decoration-color:#000;text-transform:none;text-orientation:mixed;shape-padding:0;isolation:auto;mix-blend-mode:normal" d="M-290.33756 181.79144c-.25417 0-.46296.20873-.46296.46284h.26566c0-.11109.0861-.19725.1973-.19725.11121 0 .19925.0862.19925.19725v.13279h.26371v-.13279c.00001-.25412-.20879-.46284-.46296-.46284zM-292.18939 178.94799c-.18097 0-.33013.15107-.33013.33199v.0664c0 .18092.14916.33004.33013.33004h5.42463c.18096 0 .33012-.14912.33012-.33004v-.0664c0-.18092-.14916-.33199-.33012-.33199zm0 .26559h5.42463c.0389 0 .0664.0275.0664.0664v.0664c0 .0389-.0275.0645-.0664.0645h-5.42463c-.0389 0-.0664-.0255-.0664-.0645v-.0664c0-.0389.0275-.0664.0664-.0664z" color="#000" font-family="sans-serif" font-weight="400" overflow="visible" white-space="normal"/><path style="line-height:normal;font-variant-ligatures:normal;font-variant-position:normal;font-variant-caps:normal;font-variant-numeric:normal;font-variant-alternates:normal;font-feature-settings:normal;text-indent:0;text-align:start;text-decoration-line:none;text-decoration-style:solid;text-decoration-color:#000;text-transform:none;text-orientation:mixed;shape-padding:0;isolation:auto;mix-blend-mode:normal" d="M-291.27911 178.81518a.13232442.1322908 0 0 0-.1172.13281v2.447a.13283.13279625 0 1 0 .26566 0v-2.447a.13232442.1322908 0 0 0-.14846-.13281zM-290.81615 178.81518a.13232442.1322908 0 0 0-.11525.13281v2.12281a.13232442.1322908 0 1 0 .26371 0v-2.12281a.13232442.1322908 0 0 0-.14846-.13281zM-290.35123 178.81518a.13232442.1322908 0 0 0-.11721.13281v1.16003a.13232442.1322908 0 1 0 .26371 0v-1.16003a.13232442.1322908 0 0 0-.1465-.13281zM-289.88827 178.81518a.13232442.1322908 0 0 0-.11721.13281v1.5467a.13232442.1322908 0 1 0 .26371 0v-1.5467a.13232442.1322908 0 0 0-.1465-.13281z" color="#000" font-family="sans-serif" font-weight="400" overflow="visible" white-space="normal"/></g></svg>