<?xml version="1.0" encoding="UTF-8" standalone="no"?>
<svg xmlns="http://www.w3.org/2000/svg" viewBox="0 0 24 24"><title>Cupcake</title><g id="Cupcake"><g id="_Group_" data-name="&lt;Group&gt;"><path d="M20.74,12.5c-.88,0-.88-1-1.76-1s-.88,1-1.75,1-.87-1-1.75-1-.88,1-1.75,1-.87-1-1.75-1-.87,1-1.75,1-.87-1-1.75-1-.87,1-1.74,1-.87-1-1.75-1-.87,1-1.75,1-.87-1-1.75-1l2.74,9.83A1.5,1.5,0,0,0,5.7,22.5H18.3a1.5,1.5,0,0,0,1.46-1.17L22.5,11.5C21.62,11.5,21.62,12.5,20.74,12.5Z" style="fill:none;stroke:#303c42;stroke-linecap:round;stroke-linejoin:round"/></g><path d="M21.62,12C21,9.09,19,4.5,10.5,1.5c1,1.5.5,3-3,4-2.88.82-4.73,4.07-5,6.62" style="fill:none;stroke:#303c42;stroke-linecap:round;stroke-linejoin:round"/><path d="M15.5,11.5c0-4,0-6.5-5-10,4,5-2,5.5-2,10" style="fill:none;stroke:#303c42;stroke-linecap:round;stroke-linejoin:round"/></g>
	<metadata>
		<rdf:RDF xmlns:rdf="http://www.w3.org/1999/02/22-rdf-syntax-ns#" xmlns:rdfs="http://www.w3.org/2000/01/rdf-schema#" xmlns:dc="http://purl.org/dc/elements/1.1/">
			<rdf:Description about="https://iconscout.com/legal#licenses" dc:title="food; eat; cupcake; muffin" dc:description="food; eat; cupcake; muffin" dc:publisher="Iconscout" dc:date="2017-02-16" dc:format="image/svg+xml" dc:language="en">
				<dc:creator>
					<rdf:Bag>
						<rdf:li>Alpár - Etele Méder</rdf:li>
					</rdf:Bag>
				</dc:creator>
			</rdf:Description>
		</rdf:RDF>
    </metadata></svg>
