<svg xmlns="http://www.w3.org/2000/svg" data-name="Layer 1" viewBox="0 0 512 512"><path d="M332.06592,223.74548c8.3335-35.80554,39.94873-58.67566,40.28174-58.91248a7.5,7.5,0,0,0-3.81836-13.59277,92.84433,92.84433,0,0,0-34.16895,4.19739A109.616,109.616,0,0,1,372.47656,103.667,7.5004,7.5004,0,0,0,368.459,90.16309a94.67671,94.67671,0,0,0-39.10254,6.19116,107.549,107.549,0,0,1,1.06348-11.62866,109.95115,109.95115,0,0,1,15.92871-42.72266,7.50022,7.50022,0,0,0-8.30273-11.23438,89.22558,89.22558,0,0,0-41.48828,24.67676,88.27215,88.27215,0,0,0-10.26855,13.15088A287.54144,287.54144,0,0,0,264.25879,4.248,7.50126,7.50126,0,0,0,257.5,0h-.06055a7.49972,7.49972,0,0,0-6.749,4.35742,340.93445,340.93445,0,0,0-22.217,64.39673,84.39855,84.39855,0,0,0-9.95776-13.23169,85.25578,85.25578,0,0,0-41.65918-24.7793,7.49983,7.49983,0,0,0-8.21582,11.24219A111.69423,111.69423,0,0,1,184.584,84.75a109.705,109.705,0,0,1,1.15283,12.59644,90.36725,90.36725,0,0,0-42.32764-7.17358,7.49981,7.49981,0,0,0-3.93262,13.459,115.85394,115.85394,0,0,1,38.75073,51.96423,92.44067,92.44067,0,0,0-34.77417-4.35486,7.50051,7.50051,0,0,0-3.80078,13.5918c.333.23682,31.94824,23.10693,40.28174,58.91248A138.25782,138.25782,0,0,0,151.229,249.092a7.43257,7.43257,0,0,0-3.99341,4.88086,135.74388,135.74388,0,0,0-23.26514,45.24219,7.50071,7.50071,0,0,0-.958,3.4231A135.17084,135.17084,0,0,0,118.5,337.33789v38.2334a135.16694,135.16694,0,0,0,4.51147,34.69629,7.44338,7.44338,0,0,0,.95825,3.42432,137.23565,137.23565,0,0,0,63.87842,80.33765,7.47176,7.47176,0,0,0,4.61475,2.5022A137.51026,137.51026,0,0,0,256,512c75.81738,0,137.5-61.20117,137.5-136.42871v-38.2334C393.5,289.99927,369.06934,248.2207,332.06592,223.74548Zm24.63647,44.53589a120.65427,120.65427,0,0,1,15.88916,31.79333q-7.07922,9.9895-14.49341,19.77148-12.14575-10.97314-23.73169-22.51074Q345.84094,283.02283,356.70239,268.28137ZM232.07617,337.33179q10.16382-9.94006,19.8916-20.29565,2.269-2.41663,4.51416-4.85962,9.72986,10.21,19.75537,20.08716,2.21411,2.18042,4.45068,4.342-4.27991,4.61389-8.61279,9.16382Q264.23352,353.98364,256.15869,362q-4.68933-4.62634-9.31494-9.30664Q239.37781,345.11279,232.07617,337.33179Zm13.35962,35.16089q-10.91345,10.49561-22.19165,20.62988c-1.803-1.80151-3.623-3.5918-5.41406-5.40088q-9.68811-9.78589-19.2251-19.81494,11.5415-9.85547,22.62061-20.21826,7.38721,7.85706,14.93066,15.53027Q240.75586,367.8894,245.43579,372.49268Zm37.489-16.36572q4.33813-4.54468,8.61523-9.16479,12.39917,11.63708,25.26367,22.82422Q308.10107,379.45,299.10254,388.792q-3.38745,3.5116-6.8252,6.979Q279.3772,384.34009,266.916,372.45654,275.02649,364.38379,282.9248,356.127Zm18.72778-20.24561q11.84-13.19165,23.1875-26.86646,11.73853,11.63489,24.05566,22.72656-10.77649,13.65015-22.16382,26.801Q313.96509,347.44519,301.65259,335.88135Zm-10.85181-10.36548q-2.02295-1.96655-4.03809-3.9397-10.26672-10.10962-20.2168-20.58936,12.31494-14.00427,23.865-28.71924,10.58313,12.15857,21.66919,23.79395c.71436.74658,1.446,1.48022,2.16406,2.22412Q302.79089,312.1438,290.80078,325.51587Zm-1.00854-77.15137q-12.69324-15.41089-24.44409-31.53333c.1123-.18054.22241-.36255.33472-.54334a122.42612,122.42612,0,0,1,39.79614,9.979Q297.8728,237.46631,289.79224,248.3645Zm-9.30542,12.249q-11.69824,15.03625-24.23633,29.35669-12.19666-13.28174-23.85547-27.06946,12.84668-15.73993,24.23828-32.63245Q268.12134,245.75446,280.48682,260.61353Zm-57.86328-9.48291q-9.54675-11.69458-18.68311-23.6936a122.406,122.406,0,0,1,42.55-11.16443c.24487.34827.49927.691.74487,1.03894Q235.76233,234.80615,222.62354,251.13062Zm-.04,23.38355q11.5459,13.57617,23.61646,26.67993-2.57007,2.80261-5.16772,5.57446-9.36035,9.96936-19.14648,19.54492-11.86377-13.03931-23.24316-26.5437,8.40381-8.19836,16.37207-16.82446Q218.85144,278.78223,222.5835,274.51416Zm-11.5459,62.16553Q199.91211,347.08594,188.30518,356.98q-12.32446-13.21069-24.32568-26.73462,12.22449-9.66614,23.73389-20.16968Q199.13,323.59985,211.0376,336.67969Zm-34.283,29.91235q-9.06079,7.36963-18.37988,14.42261-11.25623-15.13513-21.55933-30.91235,7.72083-5.20789,15.2085-10.7356Q164.21692,353.12744,176.75464,366.592Zm10.30981,10.95215q9.97192,10.48279,20.10547,20.73022c1.58936,1.60522,3.20557,3.19312,4.8042,4.79248q-10.48059,9.10107-21.23633,17.87549-12.02563-13.63293-23.269-27.99927Q177.411,385.42444,187.06445,377.54419ZM222.6582,413.656q12.28418,12.037,24.88208,23.81958-11.257,9.68445-22.88159,18.93042-12.267-11.84509-23.82788-24.33594Q211.88855,423.03894,222.6582,413.656Zm11.26416-9.96826q11.31445-10.18323,22.27124-20.73315,12.46985,11.9198,25.40015,23.38916-11.13574,10.81384-22.719,21.1853Q246.24194,415.74548,233.92236,403.68774Zm58.99683,12.56152q11.72717,10.08325,23.77979,19.77026-2.2804,2.43237-4.59448,4.832-8.96484,9.28491-18.49463,18.05566-11.93848-10.43665-23.66748-21.14624Q281.6571,427.23682,292.91919,416.24927Zm10.68774-10.59863q3.16479-3.20544,6.2915-6.44458,9.31348-9.65588,18.312-19.67163,10.50989,8.83337,21.27539,17.34155-10.79993,14.44958-22.69287,28.01123Q315.04968,415.46021,303.60693,405.65063Zm34.53076-37.36621q11.29907-13.05579,22.0293-26.61011,8.291,7.14624,16.78662,14.00488-8.79675,14.86523-18.677,29.02295Q348.09082,376.64844,338.1377,368.28442Zm8.86743-112.141q-11.26868,15.43085-23.23755,30.42c-.28027-.292-.56787-.57861-.84766-.87109q-11.90405-12.44385-23.19238-25.56787,9.92468-13.24365,19.17749-26.94385A123.16149,123.16149,0,0,1,347.00513,256.14343Zm.00952-88.54382c-10.24683,10.9071-22.49951,27.399-28.42139,48.28333a137.26509,137.26509,0,0,0-21.90283-8.875,70.33117,70.33117,0,0,1,50.32422-39.40833Zm-39.57227-101.834a73.15873,73.15873,0,0,1,16.43652-12.98828,122.66777,122.66777,0,0,0-9.54614,51.12036q-3.47864,2.18994-6.92261,4.8396a88.0018,88.0018,0,0,0-14.78174,14.53821,287.5446,287.5446,0,0,0-2.01855-28.86389A74.42878,74.42878,0,0,1,307.44238,65.76563Zm-99.958-.07715a70.47291,70.47291,0,0,1,15.95947,28.75427q-2.36426,15.15-3.34912,30.50818a84.57323,84.57323,0,0,0-15.40039-16.13159c-1.32031-1.05945-2.6499-2.05151-3.98364-2.99854A124.76877,124.76877,0,0,0,190.96582,52.502,69.23087,69.23087,0,0,1,207.48438,65.68848Zm-31.90723,53.541a130.59314,130.59314,0,0,0-10.59766-12.79785,70.38471,70.38471,0,0,1,30.32617,14.08691,72.41812,72.41812,0,0,1,24.43262,38.07422c.01489.05737.03638.11108.05249.16772.04663.16528.09546.32935.15308.4895.02979.08374.06421.16479.09668.24683.05713.14258.11523.28418.18066.42224.04541.09656.095.18982.14429.28369.061.11609.1228.23157.1897.34387.062.10425.12744.205.19385.30542.06445.097.12939.19336.198.28711.0752.103.15356.20251.23364.301.07031.08667.1416.17212.21582.25537.0835.094.16943.18481.25757.27429.0813.08289.16406.16382.24927.2428.08569.07959.1731.15649.26245.23169.09766.08252.197.16235.29907.23975q.12378.09412.251.18286.17322.12085.35352.23169c.07861.04858.15771.0957.238.14111q.19556.11115.39844.21008c.07788.03809.15552.07507.23462.11047.13892.06226.27979.11963.4231.17358.0835.03149.16724.06177.2522.09033.13843.04639.27832.08838.42041.127.09717.02637.19482.05127.29321.07373q.19446.04431.39185.07813c.11719.02026.23438.03784.35278.05273.11694.0144.23413.02588.35278.03479q.20032.01556.40259.0199c.05591.00122.1106.0083.16675.0083.07422,0,.14941-.001.22363-.00293.02393-.00073.04688-.00476.0708-.00562.12939-.00513.25928-.01929.3894-.03125.12842-.01172.25757-.02075.384-.03882.09253-.01331.18506-.03394.27759-.05078.16235-.0293.32446-.05908.48315-.09875.01636-.00415.03271-.00586.04932-.01013.05957-.01538.11523-.0376.17407-.05444.16821-.04761.33569-.09692.49878-.15588.08447-.0304.16553-.066.24829-.09924.14331-.05786.28638-.11572.425-.18176.10107-.04785.19775-.10144.2959-.15344.11328-.0603.22705-.11987.33691-.18579.11157-.06689.21851-.13928.32568-.21143.09106-.06116.18237-.12122.27051-.18628.11084-.08179.2168-.1687.32251-.25623.07983-.066.16016-.1311.23706-.20032.10107-.09082.19678-.186.29224-.28174.07593-.07593.15186-.15112.22437-.23022.08545-.09363.1665-.19067.24707-.28833.0752-.0907.1499-.18115.22095-.27539.06812-.09106.13184-.18481.1958-.27869.074-.108.14722-.21619.21533-.32825.05322-.0874.10181-.17688.15137-.26636.06812-.123.1355-.24634.197-.37354.042-.0874.07959-.17688.11865-.26587.05713-.13184.11377-.26367.16357-.39917.0354-.09546.06543-.19275.09668-.28979.04224-.13086.08447-.26172.11963-.39563.02954-.11292.05273-.22742.07715-.34192.02563-.12024.05249-.23987.072-.36206.02246-.13733.03638-.27612.051-.41528.01074-.10352.02417-.20605.03076-.31079.00977-.15527.00977-.31152.00977-.46826.00024-.07544.00708-.14941.00488-.22534A324.68446,324.68446,0,0,1,257.60449,26.22559,272.47815,272.47815,0,0,1,273.6123,81.92188a272.6514,272.6514,0,0,1,2.91992,72.10352c-.0061.06519-.00391.12915-.00806.19421-.01147.17175-.022.34338-.02173.514.00024.0929.00708.1842.0105.27637.0061.15161.01172.30286.02686.45288.01147.11475.03.22729.04639.34058.01831.12451.0354.2489.05981.37183.02563.12988.05859.25708.09106.38477.02661.10413.05151.20874.08252.31152.04053.13477.08813.26636.136.39819.03418.09424.06665.18872.10449.28137.05273.12878.11182.254.17163.37939.04468.09387.08789.18787.13647.27991.06055.11487.12671.22607.19312.33765.05835.098.116.196.17847.2915.06494.09814.13428.19275.20361.28784.07446.10242.14868.20459.22852.30322.06689.08276.1377.16174.20825.2417.09009.10229.17993.2041.27588.30176.07178.073.14746.14209.22241.21216.10059.09436.20093.18835.30713.27734.084.07056.17236.13623.25977.20337.10254.07837.2041.15747.31128.231.10522.07251.21509.13843.32446.20569.0957.05847.18945.11865.28809.17322.13428.07422.27295.14026.41211.20654.0813.03857.1604.07971.24365.11548.1582.06848.32153.12732.48584.18506.06006.02112.1167.04785.17773.06763.01514.00488.03027.00745.04541.01221.14551.0459.29492.0824.44434.11963.10449.02637.2085.05615.313.07776.10034.02051.20361.03345.30566.04993.15625.02563.312.05176.468.06714.01489.00146.02881.005.0437.00635.06543.0061.12964.004.19507.00854.16821.01123.33618.022.50366.02185.11523.00012.22827-.00781.34229-.01282.12549-.006.25122-.00952.376-.02173.15088-.0144.29883-.03784.44727-.061.08545-.01367.17114-.02441.25586-.041.17236-.0332.34131-.07568.50977-.12061.06055-.01636.12183-.03027.18213-.0481.17725-.05225.35059-.1134.52246-.17834.052-.01965.10474-.03748.15649-.05823.168-.06775.33154-.14355.49365-.223.05615-.02747.11279-.05334.16821-.08215.14868-.07764.29272-.16211.43555-.24927.06689-.04065.134-.07971.19946-.12231.12476-.08154.24487-.16895.3645-.25781.07861-.05811.15771-.11511.23413-.17627.10205-.08215.19971-.16919.29736-.25659.08521-.07593.17065-.15112.25269-.2312.08545-.08374.166-.17163.24756-.2594.084-.09058.16846-.18054.24854-.27576.07617-.0907.14722-.18555.21924-.28.07422-.09766.14941-.19409.21924-.2959.07373-.10718.14087-.219.20923-.33032.05786-.09448.11743-.1875.17114-.28516.07324-.132.13818-.26868.20337-.40564.04-.08435.08276-.16663.11987-.25281.06665-.15454.12378-.31384.18018-.47375.02246-.06335.05054-.123.07129-.18738a76.33373,76.33373,0,0,1,25.45508-36.42773A74.13255,74.13255,0,0,1,346.585,106.793a124.73441,124.73441,0,0,0-30.198,56.78076,83.84246,83.84246,0,0,0-9.0647,6.30518,86.55813,86.55813,0,0,0-25.43066,33.4668,138.78333,138.78333,0,0,0-51.916.02539,86.073,86.073,0,0,0-25.28418-33.48145,83.38088,83.38088,0,0,0-8.08667-5.71948A131.13908,131.13908,0,0,0,175.57715,119.22949Zm-10.63184,48.32715a69.93207,69.93207,0,0,1,50.248,39.48572,137.19292,137.19292,0,0,0-20.39038,8.14978c-.72583-.9895-1.45874-1.97437-2.17993-2.96655a7.59067,7.59067,0,0,0-.54932-.66528C185.77051,192.69067,174.48267,177.701,164.94531,167.55664Zm25.675,67.13818q10.81165,14.2901,22.21484,28.1626-4.35315,5.03064-8.84985,9.92188-7.27368,7.89221-14.94482,15.406-12.62842-15.48889-24.554-31.47412A123.162,123.162,0,0,1,190.62036,234.69482ZM154.87012,268.892q11.30786,15.02692,23.24707,29.6344-11.64258,10.64612-24.05249,20.42993-7.61792-8.76562-15.06616-17.62744A120.59351,120.59351,0,0,1,154.87012,268.892Zm-20.0603,50.71448q3.6178,4.23413,7.28516,8.439-4.24182,3.10767-8.55347,6.1228A120.67686,120.67686,0,0,1,134.80981,319.60645ZM133.5,375.57129v-3.5166q6.24426,9.03735,12.80371,17.86353-5.35767,3.86243-10.78955,7.6228A120.59822,120.59822,0,0,1,133.5,375.57129Zm23.55713,71.50537a120.77041,120.77041,0,0,1-17.5918-34.06909q8.046-5.4613,15.92969-11.15112,11.39868,14.595,23.623,28.47388Q168.16284,438.87988,157.05713,447.07666Zm9.644,11.5249q11.32434-8.37927,22.39893-17.12158,11.45947,12.40576,23.593,24.24292-9.51416,7.262-19.24536,14.21265A123.16558,123.16558,0,0,1,166.70117,458.60156Zm41.85938,28.9209q7.64722-5.584,15.16235-11.35791,11.3822,10.54688,23.26587,20.50586A122.46519,122.46519,0,0,1,208.56055,487.52246Zm27.13525-20.7334q11.63745-9.30615,22.9126-19.05713,11.7561,10.7644,23.74683,21.249-11.15149,9.65186-22.90894,18.57373Q247.31592,477.4967,235.6958,466.78906Zm37.71191,28.97949q10.43738-8.1405,20.41577-16.8501,4.96106,4.25757,9.95142,8.46411A122.31938,122.31938,0,0,1,273.40771,495.76855Zm44.957-15.72314q-6.68591-5.58252-13.3186-11.2583,9.16223-8.53271,17.84937-17.51758,2.82642-2.92749,5.5979-5.90845,8.462,6.58594,17.063,12.96606A123.15782,123.15782,0,0,1,318.36475,480.04541ZM355.165,446.7749q-8.3595-6.19189-16.594-12.57568,11.91174-13.61682,22.77026-28.12939,5.37634,4.1001,10.80859,8.1106A120.8106,120.8106,0,0,1,355.165,446.7749Zm21.12256-48.21045q-3.0835-2.31079-6.14868-4.64941,4.19275-5.98755,8.20142-12.105A120.21333,120.21333,0,0,1,376.2876,398.56445ZM378.5,337.55054q-4.59521-3.8291-9.12622-7.74536,3.93823-5.17859,7.7854-10.4187A120.85128,120.85128,0,0,1,378.5,337.33789Z"/></svg>